# xmcd
#
# Track frame offsets:
#	150
#	13384
#	30228
#	46459
#	59875
#	73059
#	83876
#	97678
#	109278
#	120554
#	132350
#	147101
#	162000
#	195953
#
# Disc length: 4440 seconds
#
# Revision: 0
# Processed by: cddbd v1.4PL0 Copyright (c) Steve Scherf et al.
# Submitted via: dBpowerAMP V4.0
#
DISCID=bc11560e
DTITLE=Luther Wright and the Wrongs - Guitar Pickin' Martyrs
DYEAR=2003
DGENRE=Alt. Country
TTITLE0=Broken F*#%^! Heart
TTITLE1=Devious Dissembler
TTITLE2=Milk and Honey
TTITLE3=The Race To The Top
TTITLE4=Wish Me Well
TTITLE5=I'm Not Okay
TTITLE6=Not Feeling Fine
TTITLE7=My Heart, My Heart
TTITLE8=Guitar Pickin' Martyrs
TTITLE9=Darlin'
TTITLE10=Letting Go
TTITLE11=Might Dark To Travel
TTITLE12=The Settling Dust
TTITLE13=DATA
EXTD=
EXTT0=
EXTT1=
EXTT2=
EXTT3=
EXTT4=
EXTT5=
EXTT6=
EXTT7=
EXTT8=
EXTT9=
EXTT10=
EXTT11=
EXTT12=
EXTT13=
PLAYORDER=
